<?xml version="1.0" encoding="utf-8"?>
<svg viewBox="180.135 94.648 68.518 68.516" width="20px" height="20px" xmlns="http://www.w3.org/2000/svg">
  <g transform="matrix(1.601833, 0, 0, 1.562192, 187.76973, 106.514954)" style=""/>
  <g transform="matrix(1.601833, 0, 0, 1.562192, 187.76973, 106.514954)" style=""/>
  <g transform="matrix(1.601833, 0, 0, 1.562192, 187.76973, 106.514954)" style=""/>
  <g transform="matrix(1.601833, 0, 0, 1.562192, 187.76973, 106.514954)" style=""/>
  <g transform="matrix(1.601833, 0, 0, 1.562192, 187.76973, 106.514954)" style=""/>
  <g transform="matrix(1.601833, 0, 0, 1.562192, 187.76973, 106.514954)" style=""/>
  <g transform="matrix(1.601833, 0, 0, 1.562192, 187.76973, 106.514954)" style=""/>
  <g transform="matrix(1.601833, 0, 0, 1.562192, 187.76973, 106.514954)" style=""/>
  <g transform="matrix(1.601833, 0, 0, 1.562192, 187.76973, 106.514954)" style=""/>
  <g transform="matrix(1.601833, 0, 0, 1.562192, 187.76973, 106.514954)" style=""/>
  <g transform="matrix(1.601833, 0, 0, 1.562192, 187.76973, 106.514954)" style=""/>
  <g transform="matrix(1.601833, 0, 0, 1.562192, 187.76973, 106.514954)" style=""/>
  <g transform="matrix(1.601833, 0, 0, 1.562192, 187.76973, 106.514954)" style=""/>
  <g transform="matrix(1.601833, 0, 0, 1.562192, 187.76973, 106.514954)" style=""/>
  <g transform="matrix(1.601833, 0, 0, 1.562192, 187.76973, 106.514954)" style=""/>
  <g transform="matrix(0.059048, 0, 0, 0.071886, 184.725876, 94.727089)" style="">
    <path d="M990,210.8L924.3,145L345.1,724.2L75.7,454.8L10,520.6l325.5,325.5l9.2,8.9l9.8-8.9L990,210.8L990,210.8z"/>
  </g>
</svg>