<?xml version="1.0" encoding="utf-8"?>
<svg viewBox="180.135 94.648 68.518 68.516" width="20px" height="20px" xmlns="http://www.w3.org/2000/svg">
  <polygon points="239.871 110.932 235.342 106.515 213.821 127.503 192.3 106.515 187.77 110.932 209.291 131.92 187.77 152.909 192.3 157.327 213.821 136.339 235.342 157.327 239.871 152.909 218.35 131.92" style=""/>
  <g transform="matrix(1.601833, 0, 0, 1.562192, 187.76973, 106.514954)" style=""/>
  <g transform="matrix(1.601833, 0, 0, 1.562192, 187.76973, 106.514954)" style=""/>
  <g transform="matrix(1.601833, 0, 0, 1.562192, 187.76973, 106.514954)" style=""/>
  <g transform="matrix(1.601833, 0, 0, 1.562192, 187.76973, 106.514954)" style=""/>
  <g transform="matrix(1.601833, 0, 0, 1.562192, 187.76973, 106.514954)" style=""/>
  <g transform="matrix(1.601833, 0, 0, 1.562192, 187.76973, 106.514954)" style=""/>
  <g transform="matrix(1.601833, 0, 0, 1.562192, 187.76973, 106.514954)" style=""/>
  <g transform="matrix(1.601833, 0, 0, 1.562192, 187.76973, 106.514954)" style=""/>
  <g transform="matrix(1.601833, 0, 0, 1.562192, 187.76973, 106.514954)" style=""/>
  <g transform="matrix(1.601833, 0, 0, 1.562192, 187.76973, 106.514954)" style=""/>
  <g transform="matrix(1.601833, 0, 0, 1.562192, 187.76973, 106.514954)" style=""/>
  <g transform="matrix(1.601833, 0, 0, 1.562192, 187.76973, 106.514954)" style=""/>
  <g transform="matrix(1.601833, 0, 0, 1.562192, 187.76973, 106.514954)" style=""/>
  <g transform="matrix(1.601833, 0, 0, 1.562192, 187.76973, 106.514954)" style=""/>
  <g transform="matrix(1.601833, 0, 0, 1.562192, 187.76973, 106.514954)" style=""/>
</svg>